<svg width="512" height="512" viewBox="0 0 512 512" fill="none" xmlns="http://www.w3.org/2000/svg">
<g clip-path="url(#clip0_1_4)">
<path d="M512 256C512 397.385 397.385 512 256 512C114.615 512 0 397.385 0 256C0 114.615 114.615 0 256 0C397.385 0 512 114.615 512 256Z" fill="#A6E3A8"/>
<path d="M355.5 189.667H338.917V156.5C338.917 110.73 301.77 73.5833 256 73.5833C210.23 73.5833 173.083 110.73 173.083 156.5V189.667H156.5C138.258 189.667 123.333 204.592 123.333 222.833V388.667C123.333 406.908 138.258 421.833 156.5 421.833H256H355.5C373.742 421.833 388.667 406.908 388.667 388.667V222.833C388.667 204.592 373.742 189.667 355.5 189.667ZM206.25 156.5C206.25 128.972 228.472 106.75 256 106.75C283.528 106.75 305.75 128.972 305.75 156.5V189.667H206.25V156.5ZM355.5 388.667H156.5V222.833H355.5V388.667Z" fill="black"/>
<path d="M303.536 327.786L286.993 325.897C283.02 325.441 279.112 326.809 276.312 329.61L264.327 341.594C245.895 332.215 230.785 317.17 221.406 298.672L233.455 286.623C236.256 283.822 237.624 279.914 237.168 275.941L235.279 259.528C234.497 252.95 228.961 248 222.318 248H211.05C203.69 248 197.568 254.122 198.024 261.482C201.476 317.104 245.96 361.524 301.517 364.976C308.877 365.432 314.999 359.31 314.999 351.95V340.682C315.065 334.104 310.115 328.568 303.536 327.786Z" fill="black"/>
</g>
<defs>
<clipPath id="clip0_1_4">
<rect width="512" height="512" fill="white"/>
</clipPath>
</defs>
</svg>
